<?xml version="1.0" encoding="UTF-8"?>
<svg version="1.1" id="Layer_1" xmlns="http://www.w3.org/2000/svg" xmlns:xlink="http://www.w3.org/1999/xlink" x="0px" y="0px" width="24.062px" height="24.063px" viewBox="0 0 24.062 24.063" enable-background="new 0 0 24.062 24.063" xml:space="preserve">
<path fill="#FFF" d="M13.4,12l6.2-6.2c0.4-0.4,0.4-1,0-1.4c-0.4-0.4-1-0.4-1.4,0L12,10.6L5.8,4.4C5.4,4,4.8,4,4.4,4.4  C4,4.8,4,5.4,4.4,5.8l6.2,6.2l-6.2,6.2c-0.4,0.4-0.4,1,0,1.4C4.6,19.9,4.8,20,5.1,20c0.3,0,0.5-0.1,0.7-0.3l6.2-6.2l6.2,6.2  c0.2,0.2,0.4,0.3,0.7,0.3c0.3,0,0.5-0.1,0.7-0.3c0.4-0.4,0.4-1,0-1.4L13.4,12z"/>
</svg>