<?xml version="1.0" encoding="UTF-8"?>
<!-- Generator: Adobe Illustrator 16.0.0, SVG Export Plug-In . SVG Version: 6.00 Build 0)  -->
<!DOCTYPE svg PUBLIC "-//W3C//DTD SVG 1.1//EN" "http://www.w3.org/Graphics/SVG/1.1/DTD/svg11.dtd">
<svg version="1.1" id="Layer_1" xmlns="http://www.w3.org/2000/svg" xmlns:xlink="http://www.w3.org/1999/xlink" x="0px" y="0px" width="31.873px" height="28.798px" viewBox="0 0 31.873 28.798" enable-background="new 0 0 31.873 28.798" xml:space="preserve">
<g>
	<path fill="#FFF" d="M15.937,23.577c3.906,0,7.084-3.178,7.084-7.083s-3.178-7.083-7.084-7.083s-7.084,3.177-7.084,7.083   S12.03,23.577,15.937,23.577z M15.937,11.411c2.804,0,5.084,2.28,5.084,5.083c0,2.802-2.28,5.083-5.084,5.083   s-5.084-2.281-5.084-5.083C10.853,13.691,13.133,11.411,15.937,11.411z"/>
	<path fill="#FFF" d="M29.873,4.189h-2.926V2c0-1.103-0.897-2-2-2h-7.625c-1.103,0-2,0.897-2,2v2.189H8.101V3.535   c0-1.103-0.897-2-2-2H4.983c-1.103,0-2,0.897-2,2v0.654H2c-1.103,0-2,0.897-2,2v20.608c0,1.104,0.897,2,2,2h27.873   c1.103,0,2-0.896,2-2V6.189C31.873,5.086,30.976,4.189,29.873,4.189z M17.322,2h7.625v2.189h-7.625V2z M4.983,3.535h1.117v0.654   H4.983V3.535z M29.87,26.798H2V6.189h27.873L29.87,26.798z"/>
</g>
<g>
</g>
<g>
</g>
<g>
</g>
<g>
</g>
<g>
</g>
<g>
</g>
</svg>